<svg width="100" height="100" viewBox="0 0 100 100" fill="none" xmlns="http://www.w3.org/2000/svg">
  <path d="M50 95C74.8528 95 95 74.8528 95 50C95 25.1472 74.8528 5 50 5C25.1472 5 5 25.1472 5 50C5 74.8528 25.1472 95 50 95Z" fill="#FF2D55"/>
  <path fill-rule="evenodd" clip-rule="evenodd" d="M69.8 38.0667H62.6667V30.9333C62.6667 29.3067 61.36 28 59.7333 28H40.2667C38.64 28 37.3333 29.3067 37.3333 30.9333V38.0667H30.2C28.5733 38.0667 27.2667 39.3733 27.2667 41V59.7333C27.2667 61.36 28.5733 62.6667 30.2 62.6667H37.3333V69.8C37.3333 71.4267 38.64 72.7333 40.2667 72.7333H59.7333C61.36 72.7333 62.6667 71.4267 62.6667 69.8V62.6667H69.8C71.4267 62.6667 72.7333 61.36 72.7333 59.7333V41C72.7333 39.3733 71.4267 38.0667 69.8 38.0667ZM55.5333 43.6H53.1333V47.6H49.1333V50H53.1333V54H55.5333V50H59.5333V47.6H55.5333V43.6ZM44.4667 54C42.84 54 41.5333 52.6933 41.5333 51.0667C41.5333 49.44 42.84 48.1333 44.4667 48.1333C46.0933 48.1333 47.4 49.44 47.4 51.0667C47.4 52.6933 46.0933 54 44.4667 54Z" fill="white"/>
</svg> 