<svg width="100" height="36" viewBox="0 0 100 36" fill="none" xmlns="http://www.w3.org/2000/svg">
  <path d="M50.0001 19.5692C50.0001 21.9346 47.9736 23.8793 45.5018 23.8793C43.03 23.8793 41.0034 21.9346 41.0034 19.5692C41.0034 17.2038 43.03 15.2592 45.5018 15.2592C47.9736 15.2592 50.0001 17.2038 50.0001 19.5692Z" fill="#00B0B9"/>
  <path d="M58.6592 19.5692C58.6592 21.9346 56.6327 23.8793 54.1609 23.8793C51.6891 23.8793 49.6626 21.9346 49.6626 19.5692C49.6626 17.2038 51.6891 15.2592 54.1609 15.2592C56.6327 15.2592 58.6592 17.2038 58.6592 19.5692Z" fill="#00B0B9"/>
  <path d="M54.1606 11.1141C54.1606 13.4795 52.134 15.4242 49.6622 15.4242C47.1904 15.4242 45.1639 13.4795 45.1639 11.1141C45.1639 8.74874 47.1904 6.80408 49.6622 6.80408C52.134 6.80408 54.1606 8.74874 54.1606 11.1141Z" fill="#00B0B9"/>
  <path d="M54.1606 28.0243C54.1606 30.3897 52.134 32.3344 49.6622 32.3344C47.1904 32.3344 45.1639 30.3897 45.1639 28.0243C45.1639 25.6589 47.1904 23.7143 49.6622 23.7143C52.134 23.7143 54.1606 25.6589 54.1606 28.0243Z" fill="#00B0B9"/>
  <path d="M41.3414 28.0243C41.3414 30.3897 39.3149 32.3344 36.8431 32.3344C34.3713 32.3344 32.3447 30.3897 32.3447 28.0243C32.3447 25.6589 34.3713 23.7143 36.8431 23.7143C39.3149 23.7143 41.3414 25.6589 41.3414 28.0243Z" fill="#00B0B9"/>
  <path d="M41.3414 11.1141C41.3414 13.4795 39.3149 15.4242 36.8431 15.4242C34.3713 15.4242 32.3447 13.4795 32.3447 11.1141C32.3447 8.74874 34.3713 6.80408 36.8431 6.80408C39.3149 6.80408 41.3414 8.74874 41.3414 11.1141Z" fill="#00B0B9"/>
  <path d="M67.3175 28.0243C67.3175 30.3897 65.291 32.3344 62.8192 32.3344C60.3474 32.3344 58.3208 30.3897 58.3208 28.0243C58.3208 25.6589 60.3474 23.7143 62.8192 23.7143C65.291 23.7143 67.3175 25.6589 67.3175 28.0243Z" fill="#00B0B9"/>
  <path d="M67.3175 11.1141C67.3175 13.4795 65.291 15.4242 62.8192 15.4242C60.3474 15.4242 58.3208 13.4795 58.3208 11.1141C58.3208 8.74874 60.3474 6.80408 62.8192 6.80408C65.291 6.80408 67.3175 8.74874 67.3175 11.1141Z" fill="#00B0B9"/>
</svg> 