<svg width="120" height="36" viewBox="0 0 120 36" fill="none" xmlns="http://www.w3.org/2000/svg">
  <path d="M67.9424 11.0825H63.8506L59.5217 17.4642L55.192 11.0825H51.1L57.9318 21.2651V25.5H61.1107V21.2651L67.9424 11.0825Z" fill="#000000"/>
  <path d="M71.6 11.0825H68.4211V25.5H71.6V11.0825Z" fill="#000000"/>
  <path d="M89.272 11.0825H86.0939V25.5H89.272V11.0825Z" fill="#000000"/>
  <path d="M81.3639 10.7502C76.3233 10.7502 72.2308 14.843 72.2308 18.2917C72.2308 21.7404 76.3233 25.8332 81.3639 25.8332C86.4036 25.8332 90.4969 21.7404 90.4969 18.2917C90.4969 14.8422 86.4036 10.7502 81.3639 10.7502ZM81.3639 22.9159C77.7928 22.9159 75.4107 20.5334 75.4107 18.2917C75.4107 16.05 77.7928 13.6675 81.3639 13.6675C84.9341 13.6675 87.3171 16.05 87.3171 18.2917C87.3171 20.5334 84.9341 22.9159 81.3639 22.9159Z" fill="#000000"/>
  <path d="M107.177 17.4649C107.177 13.8341 104.361 11.0825 100.729 11.0825H94.7539V25.5H97.9328V14.2667H100.729C102.604 14.2667 103.997 15.6594 103.997 17.5349V25.5H107.177V17.4649Z" fill="#000000"/>
  <path d="M42.4328 22.4999C40.6186 22.4999 39.2977 21.2651 39.0611 20.0318H50.4655C50.4655 16.8824 49.3108 14.2667 47.7332 13.0326C46.5784 12.0659 45.0008 11.5826 42.6686 11.5826C38.9151 11.5826 35.4082 14.5167 35.4082 18.5417C35.4082 22.5667 38.9151 25.5 43.1418 25.5C46.9674 25.5 49.5466 23.4659 50.3827 20.5151H47.2601C46.4241 21.7492 44.4904 22.4999 42.4328 22.4999Z" fill="#000000"/>
  <path d="M40.5723 18.125H47.2061C47.2061 16.8909 46.1343 14.5833 42.9553 14.5833C40.4917 14.5833 40.2551 16.4158 40.5723 18.125Z" fill="#000000"/>
  <path d="M25 11.0825V13.75H29.5656V25.5H32.7445V13.75H37.3101V11.0825H25Z" fill="#000000"/>
</svg> 