<svg width="100" height="100" viewBox="0 0 100 100" fill="none" xmlns="http://www.w3.org/2000/svg">
  <circle cx="50" cy="50" r="45" fill="white"/>
  <path d="M50 20C33.4315 20 20 33.4315 20 50C20 66.5685 33.4315 80 50 80C66.5685 80 80 66.5685 80 50C80 33.4315 66.5685 20 50 20ZM50 75C36.1929 75 25 63.8071 25 50C25 36.1929 36.1929 25 50 25C63.8071 25 75 36.1929 75 50C75 63.8071 63.8071 75 50 75Z" fill="#EA4335"/>
  <path d="M59.8492 32.5L50 50L67.5 59.8492C70.8333 55.3968 72.5 51.0317 72.5 50C72.5 40.335 67.0142 32.5 59.8492 32.5Z" fill="#4285F4"/>
  <path d="M50 50L32.5 59.8492C36.9524 67.0142 44.7873 72.5 50 72.5C55.2127 72.5 63.0476 67.0142 67.5 59.8492L50 50Z" fill="#34A853"/>
  <path d="M32.5 40.1508C29.1667 44.6032 27.5 48.9683 27.5 50C27.5 59.665 32.9858 67.5 40.1508 67.5L50 50L32.5 40.1508Z" fill="#FBBC05"/>
  <path d="M50 27.5C44.7873 27.5 36.9524 32.9858 32.5 40.1508L50 50L59.8492 32.5C55.3968 29.1667 51.0317 27.5 50 27.5Z" fill="#EA4335"/>
</svg> 