<svg width="100" height="36" viewBox="0 0 100 36" fill="none" xmlns="http://www.w3.org/2000/svg">
  <path d="M13.2676 25.4984H16.8339V17.3584C16.8339 15.9431 16.3339 14.8184 15.5863 13.9937C14.8387 13.169 13.8364 12.7567 12.5793 12.7567C11.4649 12.7567 10.5129 13.0937 9.72333 13.7678C8.93377 14.4418 8.409 15.3745 8.13898 16.5657H8.08096C7.78395 15.3496 7.24142 14.4168 6.45188 13.7678C5.66232 13.0937 4.68767 12.7567 3.52827 12.7567C2.33488 12.7567 1.36023 13.0937 0.60449 13.7678V13.169H0V25.4984H3.56629V17.3584C3.56629 16.4755 3.77884 15.8016 4.20394 15.3396C4.62904 14.8776 5.21355 14.6466 5.95747 14.6466C6.67338 14.6466 7.22772 14.8776 7.62082 15.3396C8.01391 15.8016 8.21045 16.4755 8.21045 17.3584V25.4984H11.7767V17.3584C11.7767 16.4755 11.9893 15.8016 12.4143 15.3396C12.8394 14.8776 13.4427 14.6466 14.2243 14.6466C14.9135 14.6466 15.45 14.8776 15.8335 15.3396C16.217 15.8016 16.4087 16.4755 16.4087 17.3584V25.4984H16.8339" fill="#1A1C28"/>
  <path d="M26.7339 12.7559C24.906 12.7559 23.4184 13.3048 22.271 14.4018C21.1236 15.4989 20.5498 16.9975 20.5498 18.897C20.5498 20.7965 21.1359 22.2888 22.3082 23.3734C23.4805 24.4579 24.9804 25 26.8079 25.9998C28.636 25.9998 30.1234 25.451 31.2707 24.354C32.4181 23.2569 32.9918 21.7584 32.9918 19.8589C32.9918 17.9594 32.4058 16.467 31.2335 15.3825C30.0611 14.2979 28.5613 12.7559 26.7339 12.7559ZM26.7339 23.2224C25.8055 23.2224 25.0703 22.9288 24.5283 22.3424C23.9864 21.756 23.7156 20.877 23.7156 19.7057C23.7156 18.5343 23.9737 17.5867 24.4909 16.9625C25.0081 16.3384 25.7316 16.0264 26.6624 16.0264C27.5909 16.0264 28.3261 16.32 28.8681 16.9064C29.41 17.4928 29.6808 18.3717 29.6808 19.5431C29.6808 20.7144 29.4226 21.662 28.9056 22.2862C28.3882 22.9104 27.6647 23.2224 26.7339 23.2224Z" fill="#1A1C28"/>
  <path d="M52.2676 25.4984H55.8339V10.5H55.0H52.2676V25.4984Z" fill="#1A1C28"/>
  <path d="M65.7328 12.7559C63.9048 12.7559 62.4172 13.3048 61.2699 14.4018C60.1225 15.4989 59.5488 16.9975 59.5488 18.897C59.5488 20.7965 60.1348 22.2888 61.3072 23.3734C62.4795 24.4579 63.9793 25 65.8068 25.9998C67.6348 25.9998 69.1224 25.451 70.2698 24.354C71.4171 23.2569 71.9908 21.7584 71.9908 19.8589C71.9908 17.9594 71.4048 16.467 70.2324 15.3825C69.06 14.2979 67.5602 12.7559 65.7328 12.7559ZM65.7328 23.2224C64.8045 23.2224 64.0693 22.9288 63.5273 22.3424C62.9854 21.756 62.7146 20.877 62.7146 19.7057C62.7146 18.5343 62.9727 17.5867 63.4898 16.9625C64.007 16.3384 64.7306 16.0264 65.6614 16.0264C66.5898 16.0264 67.325 16.32 67.867 16.9064C68.409 17.4928 68.6798 18.3717 68.6798 19.5431C68.6798 20.7144 68.4216 21.662 67.9046 22.2862C67.3872 22.9104 66.6637 23.2224 65.7328 23.2224Z" fill="#1A1C28"/>
  <path d="M80.0676 25.4982H83.634V17.3583C83.634 15.943 83.134 14.8183 82.3863 13.9936C81.6387 13.169 80.6364 12.7567 79.3794 12.7567C77.9797 12.7567 76.8277 13.2062 75.9237 14.1054C75.0196 15.0046 74.5677 16.3075 74.5677 18.014C74.5677 19.7206 75.0198 21.0111 75.924 21.8858C76.8283 22.7605 78.0353 23.1979 79.5451 23.1979C80.7627 23.1979 81.7793 22.9044 82.5956 22.3181V25.4982H83.634" fill="#1A1C28"/>
  <path d="M79.8407 20.3571C78.9123 20.3571 78.1771 20.0635 77.6351 19.4771C77.0932 18.8907 76.8223 18.0117 76.8223 16.8404C76.8223 15.6691 77.0804 14.7214 77.5975 14.0973C78.1147 13.4731 78.8382 13.1611 79.769 13.1611C80.6974 13.1611 81.4327 13.4547 81.9746 14.0411C82.5166 14.6275 82.7874 15.5065 82.7874 16.6778C82.7874 17.8491 82.5292 18.7968 82.0122 19.4209C81.4949 20.0451 80.7715 20.3571 79.8407 20.3571Z" fill="#1A1C28"/>
  <path d="M37.2676 25.4984H40.8339V13.169H37.2676V25.4984Z" fill="#1A1C28"/>
  <path d="M39 11C40.1046 11 41 10.1046 41 9C41 7.89543 40.1046 7 39 7C37.8954 7 37 7.89543 37 9C37 10.1046 37.8954 11 39 11Z" fill="#1A1C28"/>
  <path d="M49.2676 25.4984H45.7013V13.169H49.2676V25.4984Z" fill="#1A1C28"/>
  <path d="M47.5 11C46.3954 11 45.5 10.1046 45.5 9C45.5 7.89543 46.3954 7 47.5 7C48.6046 7 49.5 7.89543 49.5 9C49.5 10.1046 48.6046 11 47.5 11Z" fill="#1A1C28"/>
  <path d="M90.0676 25.4984H86.5013V13.169H90.0676V25.4984Z" fill="#1A1C28"/>
  <path d="M88.4 11C87.2954 11 86.4 10.1046 86.4 9C86.4 7.89543 87.2954 7 88.4 7C89.5046 7 90.4 7.89543 90.4 9C90.4 10.1046 89.5046 11 88.4 11Z" fill="#1A1C28"/>
  <path d="M94.0676 25.4984H97.634V13.169H94.0676V25.4984Z" fill="#1A1C28"/>
  <path d="M96 11C97.1046 11 98 10.1046 98 9C98 7.89543 97.1046 7 96 7C94.8954 7 94 7.89543 94 9C94 10.1046 94.8954 11 96 11Z" fill="#1A1C28"/>
</svg> 